<svg viewBox="0 0 920 500" role="img" aria-label="Phòng AdFond theo khuôn vòng tối ưu: camp chạy, GA4 đo mỗi giờ, Lan quyết theo biên, Ads Script chỉnh trần thầu, quay lại chạy; cặp mới từ Bình đi vào vòng qua dựng trang; mọi thứ chạm tiền thoát ra cổng anh ký; Kiên là công tắc cắt vòng; Trang nhận thông báo chính sách" class="so-do"><defs><marker id="ar" viewBox="0 0 10 10" refX="9" refY="5" markerWidth="7" markerHeight="7" orient="auto-start-reverse"><path d="M0 0L10 5L0 10z" fill="currentColor"/></marker></defs>
<g fill="none" stroke="currentColor" stroke-width="1.2">
<rect x="20" y="20" width="880" height="460" rx="6" stroke-dasharray="4 3"/>
<text x="34" y="42" font-size="14" font-weight="600" fill="currentColor" stroke="none">Phòng AdFond — khuôn VÒNG TỐI ƯU (đo → quyết → chỉnh → chạy, mỗi giờ) — Lan</text>
<!-- vòng: 4 ô -->
<rect x="390" y="80" width="150" height="56" rx="4"/>
<rect x="600" y="200" width="150" height="56" rx="4"/>
<rect x="390" y="320" width="150" height="56" rx="4"/>
<rect x="180" y="200" width="150" height="56" rx="4"/>
<path d="M540 108 Q640 108 660 198" marker-end="url(#ar)"/>
<path d="M690 256 Q690 348 542 348" marker-end="url(#ar)"/>
<path d="M390 348 Q250 348 250 258" marker-end="url(#ar)"/>
<path d="M250 200 Q250 108 388 108" marker-end="url(#ar)"/>
<!-- vào vòng -->
<rect x="40" y="70" width="120" height="58" rx="4"/><rect x="40" y="150" width="120" height="44" rx="4" stroke-dasharray="4 3"/>
<path d="M100 128 V148" marker-end="url(#ar)"/>
<path d="M160 172 H178 V200" marker-end="url(#ar)"/>
<!-- cổng tiền (thoát ra) -->
<rect x="740" y="64" width="150" height="70" rx="4" stroke="#b4541a" stroke-width="2"/>
<path d="M690 200 V134 H738" marker-end="url(#ar)" stroke="#b4541a" stroke-width="2"/>
<path d="M815 134 V175" stroke="#b4541a" stroke-dasharray="3 3"/>
<text x="770" y="160" font-size="10.5" fill="#b4541a" stroke="none">ký → vào vòng</text>
<!-- Kiên: công tắc cắt vòng -->
<rect x="600" y="290" width="150" height="40" rx="4" stroke="#0f6e73" stroke-width="2"/>
<path d="M675 290 V256" marker-end="url(#ar)" stroke="#0f6e73" stroke-width="2"/>
<!-- kệ: camp sống -->
<rect x="40" y="290" width="120" height="120" rx="4"/>
<path d="M180 228 H160" marker-end="url(#ar)" stroke-dasharray="3 3"/>
<!-- cửa dưới -->
<rect x="200" y="420" width="190" height="46" rx="4" stroke-dasharray="4 3"/><rect x="410" y="420" width="190" height="46" rx="4" stroke-dasharray="4 3"/><rect x="620" y="420" width="260" height="46" rx="4" stroke="#b4541a" stroke-dasharray="4 3"/>
<path d="M295 420 V376 H390" stroke-dasharray="3 3"/><path d="M505 420 V378" marker-end="url(#ar)"/><path d="M750 420 V330" marker-end="url(#ar)" stroke="#b4541a"/>
</g>
<g fill="currentColor">
<text x="465" y="102" text-anchor="middle" font-weight="600">CHẠY</text><text x="465" y="118" text-anchor="middle" font-size="10.5">camp Google asfy_01 · Bidvertiser · TF</text><text x="465" y="130" text-anchor="middle" font-size="10.5">máy</text>
<text x="675" y="222" text-anchor="middle" font-weight="600">ĐO (mỗi giờ)</text><text x="675" y="238" text-anchor="middle" font-size="10.5">GA4 12 property · postback TP/CJ</text><text x="675" y="250" text-anchor="middle" font-size="10.5">ga4_daily · kenh_so_ngay · máy</text>
<text x="465" y="342" text-anchor="middle" font-weight="600">QUYẾT</text><text x="465" y="358" text-anchor="middle" font-size="10.5">biên = payout×CVR − CPC · đứng 0 = nghi pipeline</text><text x="465" y="370" text-anchor="middle" font-size="10.5">Lan (claude-code) · An phản biện</text>
<text x="255" y="222" text-anchor="middle" font-weight="600">CHỈNH</text><text x="255" y="238" text-anchor="middle" font-size="10.5">Ads Script trần thầu · tắt camp · A/B tn_ti_le</text><text x="255" y="250" text-anchor="middle" font-size="10.5">Lan mức 2 · không thêm tiền</text>
<text x="100" y="92" text-anchor="middle" font-weight="600">Cặp mới</text><text x="100" y="108" text-anchor="middle" font-size="10.5">ngách × nước biên dương</text><text x="100" y="121" text-anchor="middle" font-size="10.5">Bình (openai), T2</text>
<text x="100" y="170" text-anchor="middle" font-size="10.5">dựng trang · link từ repo</text><text x="100" y="184" text-anchor="middle" font-size="10.5">máy, rsync box2</text>
<text x="815" y="86" text-anchor="middle" font-weight="600" fill="#b4541a">CỔNG TIỀN</text><text x="815" y="102" text-anchor="middle" font-size="10.5">tăng ngân sách · TK mới · mua</text><text x="815" y="116" text-anchor="middle" font-size="10.5">Hà soát số → anh ký (mức 3)</text><text x="815" y="128" text-anchor="middle" font-size="10.5">thoát khỏi vòng, không tự chạy</text>
<text x="675" y="306" text-anchor="middle" font-weight="600" fill="#0f6e73">Kiên · công tắc</text><text x="675" y="321" text-anchor="middle" font-size="10.5">freeze TK = cắt vòng · phao 3 TK còn nguyên</text>
<text x="100" y="310" text-anchor="middle" font-weight="600">Camp sống</text><text x="100" y="328" text-anchor="middle" font-size="10.5">asfy_01: 100 camp Ý</text><text x="100" y="342" text-anchor="middle" font-size="10.5">flight IN / PH / AE</text><text x="100" y="360" text-anchor="middle" font-size="10.5">asfy_03: đình chỉ</text><text x="100" y="374" text-anchor="middle" font-size="10.5">không bê gì ra</text><text x="100" y="396" text-anchor="middle" font-size="10.5">3 TK nguyên: phao</text>
<text x="295" y="438" text-anchor="middle" font-weight="600">Cửa ← Tùng (Kỹ thuật)</text><text x="295" y="454" text-anchor="middle" font-size="10.5">postback đứng, GA4 im, site 502</text>
<text x="505" y="438" text-anchor="middle" font-weight="600">Cửa ← An (Tài chính)</text><text x="505" y="454" text-anchor="middle" font-size="10.5">chi/thu ngày · gross ≠ net · ngưỡng lỗ/ngày</text>
<text x="750" y="438" text-anchor="middle" font-weight="600" fill="#b4541a">Cửa → Trang (Pháp chế)</text><text x="750" y="454" text-anchor="middle" font-size="10.5">thông báo chính sách Google → soạn kháng nghị, anh bấm Submit (cách duy nhất: cấm máy tự nộp)</text>
</g></svg>